<svg height="70px" viewBox="-94 0 512 512" width="70px" height="65px" xmlns="http://www.w3.org/2000/svg"><path d="m51.199219 512h221.867187c28.265625-.027344 51.171875-22.933594 51.199219-51.199219v-409.601562c-.027344-28.265625-22.933594-51.1718752-51.199219-51.199219h-221.867187c-28.265625.0273438-51.1718752 22.933594-51.199219 51.199219v409.601562c.0273438 28.265625 22.933594 51.171875 51.199219 51.199219zm221.867187-17.066406h-221.867187c-18.851563 0-34.132813-15.28125-34.132813-34.132813v-17.066406h290.132813v17.066406c0 18.851563-15.28125 34.132813-34.132813 34.132813zm-256-409.601563h290.132813v341.335938h-290.132813zm34.132813-68.265625h102.402343v17.066406c0 4.714844 3.820313 8.535157 8.53125 8.535157 4.714844 0 8.535157-3.820313 8.535157-8.535157v-17.066406h102.398437c18.851563 0 34.132813 15.28125 34.132813 34.132813v17.066406h-290.132813v-17.066406c0-18.851563 15.28125-34.132813 34.132813-34.132813zm0 0"/><path d="m187.734375 460.800781h-51.199219c-4.714844 0-8.535156 3.820313-8.535156 8.53125 0 4.714844 3.820312 8.535157 8.535156 8.535157h51.199219c4.710937 0 8.53125-3.820313 8.53125-8.535157 0-4.710937-3.820313-8.53125-8.53125-8.53125zm0 0"/><path d="m176.90625 116.753906c2.160156-2.214844 2.953125-5.425781 2.070312-8.394531-.878906-2.964844-3.296874-5.222656-6.320312-5.894531-3.019531-.675782-6.167969.339844-8.226562 2.648437l-119.46875 128c-2.160157 2.214844-2.953126 5.425781-2.074219 8.394531.882812 2.964844 3.300781 5.222657 6.324219 5.894532 3.019531.675781 6.167968-.339844 8.226562-2.648438zm0 0"/><path d="m224.085938 105.191406-170.667969 187.730469c-3.171875 3.488281-2.914063 8.886719.574219 12.058594 3.484374 3.171875 8.882812 2.917969 12.054687-.570313l170.667969-187.734375c2.050781-2.253906 2.742187-5.433593 1.816406-8.339843-.929688-2.90625-3.335938-5.09375-6.316406-5.742188-2.976563-.648438-6.078125.339844-8.128906 2.597656zm0 0"/><path d="m206.957031 190.59375-68.265625 76.796875c-3.132812 3.523437-2.820312 8.917969.699219 12.050781 3.523437 3.132813 8.917969 2.820313 12.050781-.699218l68.265625-76.800782c2.027344-2.277344 2.6875-5.464844 1.726563-8.359375-.957032-2.894531-3.386719-5.054687-6.375-5.671875-2.984375-.617187-6.074219.40625-8.101563 2.683594zm0 0"/>
</svg>