<svg version="1.1" id="Layer_1" xmlns="http://www.w3.org/2000/svg" xmlns:xlink="http://www.w3.org/1999/xlink" x="0px" y="0px"
	 viewBox="0 0 512 512" style="enable-background:new 0 0 512 512;" xml:space="preserve">
	<path d="M256,0C114.842,0,0,114.842,0,256s114.842,256,256,256c38.893,0,77.822-9.134,113.032-26.479
				c6.125,5.826,14.399,9.412,23.501,9.412c18.825,0,34.133-15.309,34.133-34.133c0-18.825-15.309-34.133-34.133-34.133
				c-3.933,0-7.709,0.677-11.228,1.906l-47.388-71.079c2.419-1.86,4.771-3.807,7.039-5.824c3.516-3.14,3.831-8.525,0.7-12.049
				c-3.14-3.533-8.542-3.84-12.049-0.7c-1.678,1.493-3.418,2.929-5.191,4.322l-52.476-78.71h94.653
				c-0.15,1.981-0.339,3.957-0.591,5.916c-0.597,4.676,2.697,8.951,7.373,9.557c0.367,0.043,0.742,0.068,1.101,0.068
				c4.224,0,7.902-3.132,8.457-7.441c0.346-2.682,0.605-5.389,0.783-8.101h119.752c4.719,0,8.533-3.814,8.533-8.533
				C512,114.842,397.158,0,256,0z M409.6,460.8c0,9.412-7.654,17.067-17.067,17.067c-5.876,0-11.067-2.984-14.138-7.516
				c-0.051-0.083-0.099-0.168-0.153-0.248c-1.749-2.679-2.776-5.87-2.776-9.302c0-9.412,7.654-17.067,17.067-17.067
				C401.946,443.733,409.6,451.388,409.6,460.8z M256,247.467c-3.149,0-6.042,1.732-7.526,4.506
				c-1.485,2.782-1.314,6.144,0.427,8.764l64.551,96.826c0.219,0.978,0.606,1.934,1.188,2.82c0.606,0.914,1.358,1.671,2.203,2.266
				l50.269,75.403c-5.412,6.042-8.711,14.015-8.711,22.748c0,3.538,0.541,6.952,1.545,10.163
				c-32.459,15.696-68.222,23.97-103.945,23.97C124.254,494.933,17.067,387.746,17.067,256S124.254,17.067,256,17.067
				c128.888,0,234.274,102.579,238.78,230.4H256z"/>
			<path d="M368.749,296.51c-4.309-1.92-9.353,0.051-11.264,4.335c-2.125,4.787-4.625,9.489-7.441,13.969
				c-2.5,3.994-1.297,9.259,2.697,11.767c1.408,0.887,2.978,1.306,4.523,1.306c2.842,0,5.623-1.417,7.245-4.002
				c3.234-5.171,6.127-10.59,8.576-16.111C374.996,303.465,373.05,298.422,368.749,296.51z"/>
</svg>
