<svg version="1.1" id="Capa_1" xmlns="http://www.w3.org/2000/svg" xmlns:xlink="http://www.w3.org/1999/xlink" x="0px" y="0px"
	 viewBox="0 0 511.992 511.992" style="enable-background:new 0 0 511.992 511.992;" xml:space="preserve">
			<path d="M349.862,34.133H162.129c-14.132,0.015-25.585,11.468-25.6,25.6V256c0.015,14.132,11.468,25.585,25.6,25.6h187.733
				c14.132-0.015,25.585-11.468,25.6-25.6V59.733C375.447,45.601,363.995,34.149,349.862,34.133z M358.396,256
				c-0.006,4.71-3.823,8.527-8.533,8.533H162.129c-4.71-0.006-8.527-3.823-8.533-8.533V59.733c0.006-4.71,3.823-8.527,8.533-8.533
				h187.733c4.71,0.006,8.527,3.823,8.533,8.533V256z"/>
			<path d="M324.262,68.267H187.729c-9.422,0.009-17.057,7.645-17.067,17.067v110.933c0.009,9.422,7.645,17.057,17.067,17.067
				h136.533c9.422-0.009,17.057-7.645,17.067-17.067V85.333C341.32,75.912,333.684,68.276,324.262,68.267z M187.729,196.267V85.333
				h136.533l0.012,110.933H187.729z"/>
			<path d="M281.596,230.4h-51.2c-4.713,0-8.533,3.82-8.533,8.533s3.821,8.533,8.533,8.533h51.2c4.713,0,8.533-3.82,8.533-8.533
				S286.309,230.4,281.596,230.4z"/>
			<path d="M349.862,315.733c-14.139,0-25.6,11.462-25.6,25.6c0,14.138,11.461,25.6,25.6,25.6c14.138,0,25.6-11.462,25.6-25.6
				C375.447,327.201,363.995,315.749,349.862,315.733z M349.862,349.867c-4.713,0-8.533-3.82-8.533-8.533s3.821-8.533,8.533-8.533
				s8.533,3.821,8.533,8.533C358.39,346.044,354.573,349.861,349.862,349.867z"/>
			<path d="M290.129,349.867c-14.138,0-25.6,11.461-25.6,25.6s11.462,25.6,25.6,25.6s25.6-11.462,25.6-25.6
				C315.714,361.335,304.261,349.882,290.129,349.867z M290.129,384c-4.713,0-8.533-3.82-8.533-8.533s3.821-8.533,8.533-8.533
				s8.533,3.82,8.533,8.533C298.656,380.177,294.839,383.994,290.129,384z"/>
			<path d="M238.929,426.667h-25.6c-4.713,0-8.533,3.82-8.533,8.533s3.82,8.533,8.533,8.533h25.6c4.713,0,8.533-3.82,8.533-8.533
				S243.642,426.667,238.929,426.667z"/>
			<path d="M298.662,426.667h-25.6c-4.713,0-8.533,3.82-8.533,8.533s3.82,8.533,8.533,8.533h25.6c4.713,0,8.533-3.82,8.533-8.533
				S303.375,426.667,298.662,426.667z"/>
			<path d="M204.796,366.933h17.067c4.713,0,8.533-3.82,8.533-8.533v-25.6c0-4.713-3.821-8.533-8.533-8.533h-17.067V307.2
				c0-4.713-3.82-8.533-8.533-8.533h-25.6c-4.713,0-8.533,3.82-8.533,8.533v17.067h-17.067c-4.713,0-8.533,3.821-8.533,8.533v25.6
				c0,4.713,3.82,8.533,8.533,8.533h17.067V384c0,4.713,3.821,8.533,8.533,8.533h25.6c4.713,0,8.533-3.82,8.533-8.533V366.933z
				 M196.262,349.867c-4.713,0-8.533,3.82-8.533,8.533v17.067h-8.533V358.4c0-4.713-3.82-8.533-8.533-8.533h-17.067v-8.533h17.067
				c4.713,0,8.533-3.821,8.533-8.533v-17.067h8.533V332.8c0,4.713,3.82,8.533,8.533,8.533h17.067v8.533H196.262z"/>
			<path d="M213.329,128c2.264,0.003,4.435-0.897,6.033-2.5l8.533-8.533c3.281-3.341,3.256-8.701-0.054-12.012
				s-8.671-3.335-12.012-0.054l-8.533,8.533c-2.44,2.44-3.169,6.11-1.849,9.298S209.878,127.999,213.329,128z"/>
			<path d="M267.029,104.9l-59.733,59.733c-2.188,2.149-3.055,5.307-2.27,8.271c0.785,2.965,3.1,5.28,6.065,6.065
				c2.965,0.785,6.122-0.082,8.271-2.27l59.733-59.733c3.281-3.341,3.256-8.701-0.054-12.012S270.37,101.62,267.029,104.9z"/>
			<path d="M383.996,0h-256c-14.132,0.015-25.585,11.468-25.6,25.6v452.821c0.018,12.904,9.623,23.783,22.425,25.4l1.633,0.204
				c42.488,5.309,85.265,7.97,128.083,7.966c38.09,0.001,76.151-2.105,114.008-6.308l18.275-2.029h0.004
				c12.969-1.431,22.781-12.394,22.771-25.441V25.6C409.58,11.468,398.128,0.015,383.996,0z M392.529,478.213
				c0.005,4.35-3.268,8.005-7.592,8.479l-18.275,2.033c-79.154,8.778-159.065,8.23-238.092-1.633l-1.633-0.204
				c-4.268-0.539-7.469-4.165-7.475-8.467V25.6c0.006-4.71,3.823-8.527,8.533-8.533h256c4.71,0.006,8.527,3.823,8.533,8.533V478.213
				z"/>
</svg>
